<svg xmlns="http://www.w3.org/2000/svg" width="1200" height="630" viewBox="0 0 1200 630">
  <defs>
    <linearGradient id="bg" x1="0%" y1="0%" x2="100%" y2="100%">
      <stop offset="0%" style="stop-color:#ffffff"/>
      <stop offset="100%" style="stop-color:#f7fafc"/>
    </linearGradient>
    <linearGradient id="accent" x1="0%" y1="0%" x2="100%" y2="0%">
      <stop offset="0%" style="stop-color:#e53e3e"/>
      <stop offset="100%" style="stop-color:#1a365d"/>
    </linearGradient>
  </defs>
  <rect width="1200" height="630" fill="url(#bg)"/>
  <rect x="0" y="0" width="8" height="630" fill="url(#accent)"/>
  <rect x="0" y="580" width="1200" height="50" fill="#1a365d"/>
  
  <!-- Badge -->
  <rect x="60" y="60" width="180" height="40" rx="20" fill="#e53e3e"/>
  <text x="150" y="85" text-anchor="middle" font-size="14" fill="white" font-weight="bold" font-family="Arial, sans-serif">JULY 1 REVIEW</text>
  
  <!-- Title -->
  <text x="60" y="160" font-size="52" fill="#1a365d" font-weight="900" font-family="Arial, sans-serif">NEET UG 2026</text>
  <text x="60" y="220" font-size="30" fill="#4a5568" font-family="Arial, sans-serif">Re-Exam Review & NTA Reforms</text>
  
  <!-- Divider -->
  <rect x="60" y="260" width="200" height="4" rx="2" fill="#e53e3e"/>
  
  <!-- Info box -->
  <rect x="60" y="300" width="500" height="180" rx="12" fill="#1a365d08" stroke="#1a365d20" stroke-width="1"/>
  <text x="80" y="340" font-size="16" fill="#1a365d" font-weight="bold" font-family="Arial, sans-serif">Key Highlights</text>
  <text x="80" y="375" font-size="14" fill="#4a5568" font-family="Arial, sans-serif">• Complete analysis and expert insights</text>
  <text x="80" y="405" font-size="14" fill="#4a5568" font-family="Arial, sans-serif">• Step-by-step preparation strategies</text>
  <text x="80" y="435" font-size="14" fill="#4a5568" font-family="Arial, sans-serif">• What parents need to know right now</text>
  <text x="80" y="465" font-size="14" fill="#4a5568" font-family="Arial, sans-serif">• Official links and important dates</text>
  
  <!-- Right side decoration -->
  <circle cx="900" cy="200" r="150" fill="#e53e3e10"/>
  <circle cx="950" cy="250" r="100" fill="#1a365d10"/>
  
  <!-- Bottom icons -->
  
    <g transform="translate(60, 520)">
      <circle cx="25" cy="0" r="20" fill="#e53e3e20"/>
      <text x="25" y="5" text-anchor="middle" font-size="20">📋</text>
      <text x="25" y="40" text-anchor="middle" font-size="13" fill="#4a5568" font-family="Arial, sans-serif">Parliament</text>
    </g>
    <g transform="translate(330, 520)">
      <circle cx="25" cy="0" r="20" fill="#e53e3e20"/>
      <text x="25" y="5" text-anchor="middle" font-size="20">📝</text>
      <text x="25" y="40" text-anchor="middle" font-size="13" fill="#4a5568" font-family="Arial, sans-serif">NTA Reforms</text>
    </g>
    <g transform="translate(600, 520)">
      <circle cx="25" cy="0" r="20" fill="#e53e3e20"/>
      <text x="25" y="5" text-anchor="middle" font-size="20">📚</text>
      <text x="25" y="40" text-anchor="middle" font-size="13" fill="#4a5568" font-family="Arial, sans-serif">Student Safety</text>
    </g>
    <g transform="translate(870, 520)">
      <circle cx="25" cy="0" r="20" fill="#e53e3e20"/>
      <text x="25" y="5" text-anchor="middle" font-size="20">📅</text>
      <text x="25" y="40" text-anchor="middle" font-size="13" fill="#4a5568" font-family="Arial, sans-serif">2027 Prep</text>
    </g>
  
  <!-- Bottom bar text -->
  <text x="600" y="610" text-anchor="middle" font-size="12" fill="white" font-family="Arial, sans-serif">Jai Govind Public School — jgps.in</text>
</svg>